<svg width="48" height="48" viewBox="0 0 48 48" fill="none" xmlns="http://www.w3.org/2000/svg"><path d="M0 12C0 5.37258 5.37258 0 12 0H36C42.6274 0 48 5.37258 48 12V36C48 42.6274 42.6274 48 36 48H12C5.37258 48 0 42.6274 0 36V12Z" fill="#0060FF"></path><path fill-rule="evenodd" clip-rule="evenodd" d="M34.6148 9.94128V38.0587L11.8853 31.2882V16.7118L34.6148 9.94128ZM13.8921 18.8288V29.1712L30.2773 24L13.8921 18.8288ZM32.6079 25.3689L16.3106 30.5124L32.6079 35.3669V25.3689ZM32.6079 22.6311L16.3106 17.4876L32.6079 12.6331V22.6311Z" fill="white"></path></svg>